<?xml version="1.0" encoding="UTF-8"?>
<svg id="Layer_1" data-name="Layer 1" xmlns="http://www.w3.org/2000/svg" viewBox="0 0 429.05 158.16">
  <defs>
    <style>
      .cls-1 {
        fill: none;
        stroke: #fff;
        stroke-miterlimit: 10;
        stroke-width: 5px;
      }

      .cls-2 {
        font-size: 40px;
      }

      .cls-3 {
        font-size: 17px;
      }

      .cls-4 {
        fill: #fff;
      }

      .cls-5 {
        fill: #b22222;
      }

      .cls-6 {
        fill: #4f0000;
        font-family: Jost-SemiBold, Jost;
        font-weight: 600;
      }
    </style>
  </defs>
  <rect class="cls-4" width="429.05" height="158.16"/>
  <g>
    <rect class="cls-5" x="28.58" y="29.36" width="99.43" height="99.43" rx="36.61" ry="36.61"/>
    <path class="cls-1" d="M54.55,70.23s.33-3.98,2.66-8.51c2.55-4.95,7.5-10.55,17.04-12.34,14.13-2.65,27.76,7.83,27.76,21.59,0,3.61-1.2,8.11-4.84,14.3-2.68,4.56-6.26,9.44-8.83,13.61-.46.75-4.09,6.46-6.19,8.79-2.47,2.74-4.94,5.34-10.02-2.44-1.92-2.93-6.98-10.09-12.99-20.1-3.13-5.22-4.85-8.85-4.59-14.9Z"/>
    <circle class="cls-4" cx="78.25" cy="72.27" r="15.52"/>
    <path class="cls-5" d="M73.72,81.83h2.37l-.05-8.16,2.5-3.16v-6.84s-.84-1.11-1.78.04v4.99s-.81,0-.81,0l-.03-5.08s-.87-.99-1.75,0l-.02,5.08h-1.06v-5.1s-.79-.9-1.67,0v6.88l2.39,3.2-.09,8.16Z"/>
    <path class="cls-5" d="M82.7,81.83h2.49l.03-18.22s-1.27-1.4-2.6.64-2.9,6.62-2.21,9.29c.31,1.22,1.79,2.02,2.29,2.31v5.98Z"/>
  </g>
  <text class="cls-6" transform="translate(154.67 95.96)"><tspan class="cls-2" x="0" y="0">GoRestaurant</tspan><tspan class="cls-3" x="245.2" y="0"> </tspan></text>
</svg>